HIERARCHY
ROOT joint_Root
{
	OFFSET 0.0 0.0 0.0
	CHANNELS 6 Xposition Yposition Zposition Zrotation Xrotation Yrotation 
	JOINT Hips
	{
		OFFSET -0.726466 93.3139 -2.00062
		CHANNELS 6 Xposition Yposition Zposition Zrotation Xrotation Yrotation 
		JOINT Spine
		{
			OFFSET 15.7357 0.0 0.0
			CHANNELS 6 Xposition Yposition Zposition Zrotation Xrotation Yrotation 
			JOINT Chest
			{
				OFFSET 8.98455 -0.406207 0.0
				CHANNELS 6 Xposition Yposition Zposition Zrotation Xrotation Yrotation 
				JOINT Neck
				{
					OFFSET 16.3773 0.0 0.0
					CHANNELS 6 Xposition Yposition Zposition Zrotation Xrotation Yrotation 
					JOINT Head
					{
						OFFSET 6.45672 0.0 0.0
						CHANNELS 6 Xposition Yposition Zposition Zrotation Xrotation Yrotation 
						End Site
						{
							OFFSET 0.0 0.0 0.0
						}
					}
				}
				JOINT Shoulder_L
				{
					OFFSET 12.9942 -0.242716 4.98039
					CHANNELS 6 Xposition Yposition Zposition Zrotation Xrotation Yrotation 
					JOINT UpperArm_L
					{
						OFFSET 5.34809 0.0 0.0
						CHANNELS 6 Xposition Yposition Zposition Zrotation Xrotation Yrotation 
						JOINT LowerArm_L
						{
							OFFSET 24.3286 1.87007e-05 0.0
							CHANNELS 6 Xposition Yposition Zposition Zrotation Xrotation Yrotation 
							JOINT Hand_L
							{
								OFFSET 22.2916 0.0 0.0
								CHANNELS 6 Xposition Yposition Zposition Zrotation Xrotation Yrotation 
								End Site
								{
									OFFSET 0.0 0.0 0.0
								}
							}
						}
					}
				}
				JOINT Shoulder_R
				{
					OFFSET 12.9945 -0.242716 -4.98039
					CHANNELS 6 Xposition Yposition Zposition Zrotation Xrotation Yrotation 
					JOINT UpperArm_R
					{
						OFFSET -5.34813 0.0 0.0
						CHANNELS 6 Xposition Yposition Zposition Zrotation Xrotation Yrotation 
						JOINT LowerArm_R
						{
							OFFSET -24.3289 0.000322201 0.0
							CHANNELS 6 Xposition Yposition Zposition Zrotation Xrotation Yrotation 
							JOINT Hand_R
							{
								OFFSET -22.2915 -0.000108084 0.0
								CHANNELS 6 Xposition Yposition Zposition Zrotation Xrotation Yrotation 
								End Site
								{
									OFFSET 0.0 0.0 0.0
								}
							}
						}
					}
				}
			}
		}
		JOINT UpperLeg_L
		{
			OFFSET -2.19248 -6.46944 0.0
			CHANNELS 6 Xposition Yposition Zposition Zrotation Xrotation Yrotation 
			JOINT LowerLeg_L
			{
				OFFSET 39.0811 0.0 -1.23785e-05
				CHANNELS 6 Xposition Yposition Zposition Zrotation Xrotation Yrotation 
				JOINT Foot_L
				{
					OFFSET 40.9854 0.0 -1.26872e-05
					CHANNELS 6 Xposition Yposition Zposition Zrotation Xrotation Yrotation 
					JOINT Toes_L
					{
						OFFSET 11.7543 0.0 0.0
						CHANNELS 6 Xposition Yposition Zposition Zrotation Xrotation Yrotation 
						End Site
						{
							OFFSET 0.0 0.0 0.0
						}
					}
				}
			}
		}
		JOINT UpperLeg_R
		{
			OFFSET -2.19251 6.46944 0.0
			CHANNELS 6 Xposition Yposition Zposition Zrotation Xrotation Yrotation 
			JOINT LowerLeg_R
			{
				OFFSET -39.0811 -0.00228153 -0.0401928
				CHANNELS 6 Xposition Yposition Zposition Zrotation Xrotation Yrotation 
				JOINT Foot_R
				{
					OFFSET -40.9854 0.0 0.0
					CHANNELS 6 Xposition Yposition Zposition Zrotation Xrotation Yrotation 
					JOINT Toes_R
					{
						OFFSET -11.7543 0.0 0.0
						CHANNELS 6 Xposition Yposition Zposition Zrotation Xrotation Yrotation 
						End Site
						{
							OFFSET 0.0 0.0 0.0
						}
					}
				}
			}
		}
	}
}
MOTION
Frames:	6
Frame Time:	0.0333333
0.000000 0.000000 0.000000 0.000000 0.000000 -0.000000 -1.396880 85.137300 -39.518800 85.494900 2.388420 -4.524060 15.735700 0.000005 -0.000001 80.952300 80.934200 -77.676600 8.984550 -0.406207 -0.000000 10.236700 -2.761990 6.795700 16.377300 -0.000001 -0.000001 1.373840 -0.129880 -3.214600 6.456720 -0.000001 -0.000000 -5.147240 3.086840 2.319580 12.994200 -0.242716 4.980390 -87.962800 -5.236810 -68.704500 5.348090 -0.000007 -0.000001 -62.409100 31.490400 -8.996150 24.328600 0.000019 0.000005 4.787610 2.850960 -59.328900 22.291600 -0.000001 0.000005 -0.706181 5.647110 -14.759800 12.994500 -0.242716 -4.980390 88.131600 3.970530 -64.772800 -5.348130 -0.000001 -0.000004 -54.019000 25.824200 -5.938860 -24.328900 0.000322 -0.000009 3.007810 2.239130 -53.378500 -22.291500 -0.000108 -0.000004 -2.493170 5.603740 -11.556600 -2.192480 -6.469440 -0.000000 -169.833000 -5.635060 -3.296670 39.081100 -0.000007 -0.000012 0.192261 -0.007881 87.650100 40.985400 -0.000006 -0.000013 3.591980 -9.244010 -36.705000 11.754300 -0.000000 0.000003 -0.006265 -0.073234 -19.557500 -2.192510 6.469440 -0.000001 -169.365000 6.701360 142.923000 -39.081100 -0.002282 -0.040193 0.130992 -0.103508 50.984000 -40.985400 0.000008 0.000006 9.271560 -7.666580 -69.192700 -11.754300 -0.000006 -0.000006 -0.006114 -0.071865 -19.498000
0.000000 0.000000 0.000000 0.000000 0.000000 -0.000000 -1.410010 82.559000 -31.386400 83.967400 -1.084080 -2.144250 15.735700 0.000005 -0.000001 87.880500 79.798200 -84.314500 8.984550 -0.406207 -0.000000 12.652800 -0.595272 7.197580 16.377300 -0.000001 -0.000001 0.912693 1.144710 -2.822130 6.456720 -0.000001 -0.000000 -5.678710 3.000990 1.161560 12.994200 -0.242716 4.980390 -88.001800 -4.638220 -66.662800 5.348090 -0.000007 -0.000001 -63.106100 30.923800 -3.736090 24.328600 0.000019 0.000005 4.032310 3.168790 -51.864000 22.291600 -0.000001 0.000005 -0.416463 5.660780 -16.149500 12.994500 -0.242716 -4.980390 88.208100 4.072170 -66.226200 -5.348130 -0.000001 -0.000004 -48.360200 22.722800 -19.434700 -24.328900 0.000322 -0.000009 3.571590 2.612060 -53.875000 -22.291500 -0.000108 -0.000004 -1.357100 5.607910 -11.827600 -2.192480 -6.469440 -0.000000 -170.291000 -7.779380 -11.833600 39.081100 -0.000007 -0.000012 0.036317 0.009000 103.902000 40.985400 -0.000006 -0.000013 7.010070 -6.561230 -36.829500 11.754300 -0.000000 0.000003 -0.006904 -0.078842 -19.786300 -2.192510 6.469440 -0.000001 -168.319000 7.326260 147.327000 -39.081100 -0.002282 -0.040193 0.195864 -0.111198 60.008200 -40.985400 0.000008 0.000006 10.236800 -6.550210 -79.072500 -11.754300 -0.000006 -0.000006 -0.003203 -0.042880 -18.317000
0.000000 0.000000 0.000000 0.000000 0.000000 -0.000000 -1.186680 81.439600 -23.536500 85.578900 -2.746530 -3.303990 15.735700 0.000005 -0.000001 93.132300 80.049200 -90.219600 8.984550 -0.406207 -0.000000 12.084000 1.187530 5.698390 16.377300 -0.000001 -0.000001 1.635000 0.922241 -2.208330 6.456720 -0.000001 -0.000000 -5.006110 1.923270 0.456183 12.994200 -0.242716 4.980390 -87.801200 -4.904240 -65.814100 5.348090 -0.000007 -0.000001 -63.429500 30.119100 0.753352 24.328600 0.000019 0.000005 4.854090 4.686980 -46.122100 22.291600 -0.000001 0.000005 -2.905430 5.655820 -15.567200 12.994500 -0.242716 -4.980390 88.866000 2.679940 -67.057200 -5.348130 -0.000001 -0.000004 -45.047600 18.711600 -29.570100 -24.328900 0.000322 -0.000009 1.839700 1.217370 -56.568800 -22.291500 -0.000108 -0.000004 -1.044040 5.601400 -11.427100 -2.192480 -6.469440 -0.000000 -174.865000 -8.804660 -25.301200 39.081100 -0.000007 -0.000012 -0.207800 -0.090193 113.466000 40.985400 -0.000006 -0.000013 9.945410 -6.475110 -38.030700 11.754300 -0.000000 0.000003 -0.007423 -0.083263 -19.966800 -2.192510 6.469440 -0.000001 -171.216000 8.541140 151.148000 -39.081100 -0.002282 -0.040193 0.189489 -0.094770 63.039000 -40.985400 0.000008 0.000006 9.778450 -4.697710 -86.096700 -11.754300 -0.000006 -0.000006 -0.311646 -0.397174 -18.380100
0.000000 0.000000 0.000000 0.000000 0.000000 -0.000000 -0.805559 82.112200 -14.963000 87.226800 -4.975420 -4.335810 15.735700 0.000005 -0.000001 100.233000 80.406600 -98.306600 8.984550 -0.406207 -0.000000 11.074800 3.438250 3.518170 16.377300 -0.000001 -0.000001 2.470400 0.788575 -1.118630 6.456720 -0.000001 -0.000000 -3.827280 0.408790 0.667308 12.994200 -0.242716 4.980390 -87.749600 -4.687330 -64.317300 5.348090 -0.000007 -0.000001 -61.921700 29.395300 5.646150 24.328600 0.000019 0.000005 7.612800 7.391110 -46.095100 22.291600 -0.000001 0.000005 -4.292480 5.653850 -15.393900 12.994500 -0.242716 -4.980390 89.343300 1.571250 -67.314900 -5.348130 -0.000001 -0.000004 -41.204500 16.323800 -36.265300 -24.328900 0.000322 -0.000009 0.956696 0.538219 -60.693600 -22.291500 -0.000108 -0.000004 -0.149804 5.592140 -10.886200 -2.192480 -6.469440 -0.000000 -179.685000 -9.589440 -35.363200 39.081100 -0.000007 -0.000012 -0.342899 -0.152478 113.975000 40.985400 -0.000006 -0.000013 12.091200 -9.088670 -43.053700 11.754300 -0.000000 0.000003 -0.007151 -0.080962 -19.872900 -2.192510 6.469440 -0.000001 -175.155000 8.768310 158.883000 -39.081100 -0.002282 -0.040193 0.151909 -0.089426 58.978500 -40.985400 0.000008 0.000006 9.099330 -1.886260 -88.778500 -11.754300 -0.000006 -0.000006 -1.150420 -1.349060 -19.942000
0.000000 0.000000 0.000000 0.000000 0.000000 -0.000000 -0.191642 84.666000 -5.651140 89.545900 -6.881250 -5.388200 15.735700 0.000005 -0.000001 106.519000 80.727500 -105.925000 8.984550 -0.406207 -0.000000 10.017300 5.251270 0.727536 16.377300 -0.000001 -0.000001 3.374680 0.561370 -0.475039 6.456720 -0.000001 -0.000000 -3.477320 -1.204140 1.764540 12.994200 -0.242716 4.980390 -87.508500 -4.875430 -62.890000 5.348090 -0.000007 -0.000001 -61.194300 28.202400 9.870880 24.328600 0.000019 0.000005 6.364790 6.140650 -46.199500 22.291600 -0.000001 0.000005 -4.134350 5.648890 -14.908600 12.994500 -0.242716 -4.980390 89.605600 0.937129 -67.174000 -5.348130 -0.000001 -0.000004 -39.096500 14.969600 -39.556100 -24.328900 0.000322 -0.000009 -0.202294 -0.094378 -64.645500 -22.291500 -0.000108 -0.000004 0.292860 5.586960 -10.591200 -2.192480 -6.469440 -0.000000 175.615000 -8.655210 -41.268800 39.081100 -0.000007 -0.000012 -0.284315 -0.079232 105.574000 40.985400 -0.000006 -0.000013 11.146500 -10.327400 -48.984400 11.754300 -0.000000 0.000003 -0.006250 -0.073099 -19.552000 -2.192510 6.469440 -0.000001 179.630000 8.728130 168.195000 -39.081100 -0.002282 -0.040193 0.074089 -0.060155 49.663400 -40.985400 0.000008 0.000006 8.512040 2.199170 -82.528900 -11.754300 -0.000006 -0.000006 -0.120295 -0.293796 -25.259400
0.000000 0.000000 0.000000 0.000000 0.000000 -0.000000 0.371660 88.197400 3.829670 91.265300 -8.201810 -6.347940 15.735700 0.000005 -0.000001 111.131000 81.079900 -111.688000 8.984550 -0.406207 -0.000000 8.947460 6.392550 -1.615220 16.377300 -0.000001 -0.000001 4.325080 0.591784 -0.181575 6.456720 -0.000001 -0.000000 -3.045110 -2.559080 2.743820 12.994200 -0.242716 4.980390 -86.981400 -5.579350 -61.526100 5.348090 -0.000007 -0.000001 -61.820700 25.366400 13.181000 24.328600 0.000019 0.000005 7.023450 6.780570 -46.218600 22.291600 -0.000001 0.000005 -4.729590 5.642350 -14.323500 12.994500 -0.242716 -4.980390 89.839100 0.383243 -67.221500 -5.348130 -0.000001 -0.000004 -39.817200 15.118700 -40.204100 -24.328900 0.000322 -0.000009 -0.942798 -0.392860 -67.350600 -22.291500 -0.000108 -0.000004 -0.177290 5.579970 -10.208800 -2.192480 -6.469440 -0.000000 173.005000 -7.608150 -43.324900 39.081100 -0.000007 -0.000012 -0.118981 -0.001306 90.633100 40.985400 -0.000006 -0.000013 9.257430 -9.900840 -54.185600 11.754300 -0.000000 0.000003 -0.005791 -0.068930 -19.382000 -2.192510 6.469440 -0.000001 175.178000 8.864670 176.290000 -39.081100 -0.002282 -0.040193 0.049443 -0.055551 39.727400 -40.985400 0.000008 0.000006 7.491840 6.766160 -67.790000 -11.754300 -0.000006 -0.000006 -0.133808 -0.521711 -38.542900
